<?xml version="1.0" encoding="UTF-8" standalone="no"?>
<!DOCTYPE svg PUBLIC "-//W3C//DTD SVG 1.1//EN"
 "http://www.w3.org/Graphics/SVG/1.1/DTD/svg11.dtd">
<!-- Generated by graphviz version 2.36.0 (20140111.2315)
 -->
<!-- Title: snakemake_dag Pages: 1 -->
<svg width="381pt" height="404pt"
 viewBox="0.00 0.00 381.00 404.00" xmlns="http://www.w3.org/2000/svg" xmlns:xlink="http://www.w3.org/1999/xlink">
<g id="graph0" class="graph" transform="scale(1 1) rotate(0) translate(4 400)">
<title>snakemake_dag</title>
<polygon fill="white" stroke="none" points="-4,4 -4,-400 377,-400 377,4 -4,4"/>
<!-- 0 -->
<g id="node1" class="node"><title>0</title>
<path fill="none" stroke="#d85656" stroke-width="2" d="M163,-324C163,-324 107,-324 107,-324 101,-324 95,-318 95,-312 95,-312 95,-300 95,-300 95,-294 101,-288 107,-288 107,-288 163,-288 163,-288 169,-288 175,-294 175,-300 175,-300 175,-312 175,-312 175,-318 169,-324 163,-324"/>
<text text-anchor="middle" x="135" y="-303.5" font-family="sans" font-size="10.00">vc_freebayes</text>
</g>
<!-- 6 -->
<g id="node7" class="node"><title>6</title>
<path fill="none" stroke="#d8ac56" stroke-width="2" d="M256.25,-252C256.25,-252 143.75,-252 143.75,-252 137.75,-252 131.75,-246 131.75,-240 131.75,-240 131.75,-228 131.75,-228 131.75,-222 137.75,-216 143.75,-216 143.75,-216 256.25,-216 256.25,-216 262.25,-216 268.25,-222 268.25,-228 268.25,-228 268.25,-240 268.25,-240 268.25,-246 262.25,-252 256.25,-252"/>
<text text-anchor="middle" x="200" y="-231.5" font-family="sans" font-size="10.00">count_individual_variants</text>
</g>
<!-- 0&#45;&gt;6 -->
<g id="edge7" class="edge"><title>0&#45;&gt;6</title>
<path fill="none" stroke="grey" stroke-width="2" d="M151.067,-287.697C158.939,-279.22 168.555,-268.864 177.173,-259.583"/>
<polygon fill="grey" stroke="grey" stroke-width="2" points="179.878,-261.814 184.117,-252.104 174.748,-257.051 179.878,-261.814"/>
</g>
<!-- 7 -->
<g id="node8" class="node"><title>7</title>
<path fill="none" stroke="#56a9d8" stroke-width="2" d="M101.25,-252C101.25,-252 64.75,-252 64.75,-252 58.75,-252 52.75,-246 52.75,-240 52.75,-240 52.75,-228 52.75,-228 52.75,-222 58.75,-216 64.75,-216 64.75,-216 101.25,-216 101.25,-216 107.25,-216 113.25,-222 113.25,-228 113.25,-228 113.25,-240 113.25,-240 113.25,-246 107.25,-252 101.25,-252"/>
<text text-anchor="middle" x="83" y="-231.5" font-family="sans" font-size="10.00">index_vcf</text>
</g>
<!-- 0&#45;&gt;7 -->
<g id="edge10" class="edge"><title>0&#45;&gt;7</title>
<path fill="none" stroke="grey" stroke-width="2" d="M122.146,-287.697C115.975,-279.389 108.463,-269.277 101.676,-260.141"/>
<polygon fill="grey" stroke="grey" stroke-width="2" points="104.479,-258.045 95.7061,-252.104 98.8597,-262.219 104.479,-258.045"/>
</g>
<!-- 1 -->
<g id="node2" class="node"><title>1</title>
<path fill="none" stroke="#80d856" stroke-width="2" d="M117.25,-180C117.25,-180 64.75,-180 64.75,-180 58.75,-180 52.75,-174 52.75,-168 52.75,-168 52.75,-156 52.75,-156 52.75,-150 58.75,-144 64.75,-144 64.75,-144 117.25,-144 117.25,-144 123.25,-144 129.25,-150 129.25,-156 129.25,-156 129.25,-168 129.25,-168 129.25,-174 123.25,-180 117.25,-180"/>
<text text-anchor="middle" x="91" y="-159.5" font-family="sans" font-size="10.00">intersect_vcf</text>
</g>
<!-- 3 -->
<g id="node4" class="node"><title>3</title>
<path fill="none" stroke="#56d8d8" stroke-width="2" d="M156,-108C156,-108 34,-108 34,-108 28,-108 22,-102 22,-96 22,-96 22,-84 22,-84 22,-78 28,-72 34,-72 34,-72 156,-72 156,-72 162,-72 168,-78 168,-84 168,-84 168,-96 168,-96 168,-102 162,-108 156,-108"/>
<text text-anchor="middle" x="95" y="-87.5" font-family="sans" font-size="10.00">count_intersected_variants</text>
</g>
<!-- 1&#45;&gt;3 -->
<g id="edge5" class="edge"><title>1&#45;&gt;3</title>
<path fill="none" stroke="grey" stroke-width="2" d="M91.9888,-143.697C92.4296,-135.983 92.9593,-126.712 93.4507,-118.112"/>
<polygon fill="grey" stroke="grey" stroke-width="2" points="96.9463,-118.288 94.0226,-108.104 89.9577,-117.888 96.9463,-118.288"/>
</g>
<!-- 2 -->
<g id="node3" class="node"><title>2</title>
<path fill="none" stroke="#59d856" stroke-width="2" d="M161,-36C161,-36 131,-36 131,-36 125,-36 119,-30 119,-24 119,-24 119,-12 119,-12 119,-6 125,-0 131,-0 131,-0 161,-0 161,-0 167,-0 173,-6 173,-12 173,-12 173,-24 173,-24 173,-30 167,-36 161,-36"/>
<text text-anchor="middle" x="146" y="-15.5" font-family="sans" font-size="10.00">all</text>
</g>
<!-- 3&#45;&gt;2 -->
<g id="edge4" class="edge"><title>3&#45;&gt;2</title>
<path fill="none" stroke="grey" stroke-width="2" d="M107.607,-71.6966C113.597,-63.4741 120.876,-53.4832 127.479,-44.4207"/>
<polygon fill="grey" stroke="grey" stroke-width="2" points="130.478,-46.2477 133.538,-36.1043 124.821,-42.1257 130.478,-46.2477"/>
</g>
<!-- 4 -->
<g id="node5" class="node"><title>4</title>
<path fill="none" stroke="#56d882" stroke-width="2" d="M169.25,-396C169.25,-396 100.75,-396 100.75,-396 94.75,-396 88.75,-390 88.75,-384 88.75,-384 88.75,-372 88.75,-372 88.75,-366 94.75,-360 100.75,-360 100.75,-360 169.25,-360 169.25,-360 175.25,-360 181.25,-366 181.25,-372 181.25,-372 181.25,-384 181.25,-384 181.25,-390 175.25,-396 169.25,-396"/>
<text text-anchor="middle" x="135" y="-375.5" font-family="sans" font-size="10.00">reference_index</text>
</g>
<!-- 4&#45;&gt;0 -->
<g id="edge1" class="edge"><title>4&#45;&gt;0</title>
<path fill="none" stroke="grey" stroke-width="2" d="M135,-359.697C135,-351.983 135,-342.712 135,-334.112"/>
<polygon fill="grey" stroke="grey" stroke-width="2" points="138.5,-334.104 135,-324.104 131.5,-334.104 138.5,-334.104"/>
</g>
<!-- 5 -->
<g id="node6" class="node"><title>5</title>
<path fill="none" stroke="#56d8a9" stroke-width="2" d="M64.25,-324C64.25,-324 11.75,-324 11.75,-324 5.75,-324 -0.25,-318 -0.25,-312 -0.25,-312 -0.25,-300 -0.25,-300 -0.25,-294 5.75,-288 11.75,-288 11.75,-288 64.25,-288 64.25,-288 70.25,-288 76.25,-294 76.25,-300 76.25,-300 76.25,-312 76.25,-312 76.25,-318 70.25,-324 64.25,-324"/>
<text text-anchor="middle" x="38" y="-303.5" font-family="sans" font-size="10.00">vc_samtools</text>
</g>
<!-- 4&#45;&gt;5 -->
<g id="edge6" class="edge"><title>4&#45;&gt;5</title>
<path fill="none" stroke="grey" stroke-width="2" d="M111.022,-359.697C98.6887,-350.796 83.4836,-339.823 70.147,-330.199"/>
<polygon fill="grey" stroke="grey" stroke-width="2" points="71.8589,-327.118 61.7017,-324.104 67.7626,-332.794 71.8589,-327.118"/>
</g>
<!-- 10 -->
<g id="node11" class="node"><title>10</title>
<path fill="none" stroke="#5682d8" stroke-width="2" d="M286.25,-324C286.25,-324 205.75,-324 205.75,-324 199.75,-324 193.75,-318 193.75,-312 193.75,-312 193.75,-300 193.75,-300 193.75,-294 199.75,-288 205.75,-288 205.75,-288 286.25,-288 286.25,-288 292.25,-288 298.25,-294 298.25,-300 298.25,-300 298.25,-312 298.25,-312 298.25,-318 292.25,-324 286.25,-324"/>
<text text-anchor="middle" x="246" y="-303.5" font-family="sans" font-size="10.00">vc_haplotypecaller</text>
</g>
<!-- 4&#45;&gt;10 -->
<g id="edge13" class="edge"><title>4&#45;&gt;10</title>
<path fill="none" stroke="grey" stroke-width="2" d="M162.154,-359.876C176.533,-350.808 194.381,-339.552 209.91,-329.759"/>
<polygon fill="grey" stroke="grey" stroke-width="2" points="212.15,-332.484 218.742,-324.19 208.416,-326.564 212.15,-332.484"/>
</g>
<!-- 5&#45;&gt;6 -->
<g id="edge8" class="edge"><title>5&#45;&gt;6</title>
<path fill="none" stroke="grey" stroke-width="2" d="M76.3917,-288.411C98.7766,-278.739 127.231,-266.444 151.195,-256.089"/>
<polygon fill="grey" stroke="grey" stroke-width="2" points="152.684,-259.258 160.476,-252.078 149.908,-252.832 152.684,-259.258"/>
</g>
<!-- 5&#45;&gt;7 -->
<g id="edge11" class="edge"><title>5&#45;&gt;7</title>
<path fill="none" stroke="grey" stroke-width="2" d="M49.1236,-287.697C54.355,-279.559 60.6999,-269.689 66.4778,-260.701"/>
<polygon fill="grey" stroke="grey" stroke-width="2" points="69.5409,-262.409 72.0044,-252.104 63.6526,-258.623 69.5409,-262.409"/>
</g>
<!-- 6&#45;&gt;2 -->
<g id="edge3" class="edge"><title>6&#45;&gt;2</title>
<path fill="none" stroke="grey" stroke-width="2" d="M199.694,-215.565C198.691,-185.455 194.48,-122.121 177,-72 173.752,-62.6865 168.802,-53.1815 163.804,-44.8402"/>
<polygon fill="grey" stroke="grey" stroke-width="2" points="166.727,-42.913 158.441,-36.3099 160.801,-46.6387 166.727,-42.913"/>
</g>
<!-- 7&#45;&gt;1 -->
<g id="edge2" class="edge"><title>7&#45;&gt;1</title>
<path fill="none" stroke="grey" stroke-width="2" d="M84.9775,-215.697C85.8591,-207.983 86.9186,-198.712 87.9014,-190.112"/>
<polygon fill="grey" stroke="grey" stroke-width="2" points="91.387,-190.437 89.0452,-180.104 84.4323,-189.642 91.387,-190.437"/>
</g>
<!-- 8 -->
<g id="node9" class="node"><title>8</title>
<path fill="none" stroke="#afd856" stroke-width="2" d="M361.25,-396C361.25,-396 316.75,-396 316.75,-396 310.75,-396 304.75,-390 304.75,-384 304.75,-384 304.75,-372 304.75,-372 304.75,-366 310.75,-360 316.75,-360 316.75,-360 361.25,-360 361.25,-360 367.25,-360 373.25,-366 373.25,-372 373.25,-372 373.25,-384 373.25,-384 373.25,-390 367.25,-396 361.25,-396"/>
<text text-anchor="middle" x="339" y="-375.5" font-family="sans" font-size="10.00">index_bam</text>
</g>
<!-- 8&#45;&gt;10 -->
<g id="edge15" class="edge"><title>8&#45;&gt;10</title>
<path fill="none" stroke="grey" stroke-width="2" d="M316.011,-359.697C304.186,-350.796 289.608,-339.823 276.821,-330.199"/>
<polygon fill="grey" stroke="grey" stroke-width="2" points="278.819,-327.322 268.724,-324.104 274.609,-332.915 278.819,-327.322"/>
</g>
<!-- 9 -->
<g id="node10" class="node"><title>9</title>
<path fill="none" stroke="#d6d856" stroke-width="2" d="M274.25,-396C274.25,-396 213.75,-396 213.75,-396 207.75,-396 201.75,-390 201.75,-384 201.75,-384 201.75,-372 201.75,-372 201.75,-366 207.75,-360 213.75,-360 213.75,-360 274.25,-360 274.25,-360 280.25,-360 286.25,-366 286.25,-372 286.25,-372 286.25,-384 286.25,-384 286.25,-390 280.25,-396 274.25,-396"/>
<text text-anchor="middle" x="244" y="-375.5" font-family="sans" font-size="10.00">reference_dict</text>
</g>
<!-- 9&#45;&gt;10 -->
<g id="edge14" class="edge"><title>9&#45;&gt;10</title>
<path fill="none" stroke="grey" stroke-width="2" d="M244.494,-359.697C244.715,-351.983 244.98,-342.712 245.225,-334.112"/>
<polygon fill="grey" stroke="grey" stroke-width="2" points="248.724,-334.2 245.511,-324.104 241.727,-334 248.724,-334.2"/>
</g>
<!-- 10&#45;&gt;6 -->
<g id="edge9" class="edge"><title>10&#45;&gt;6</title>
<path fill="none" stroke="grey" stroke-width="2" d="M234.629,-287.697C229.282,-279.559 222.796,-269.689 216.889,-260.701"/>
<polygon fill="grey" stroke="grey" stroke-width="2" points="219.657,-258.539 211.24,-252.104 213.807,-262.384 219.657,-258.539"/>
</g>
<!-- 10&#45;&gt;7 -->
<g id="edge12" class="edge"><title>10&#45;&gt;7</title>
<path fill="none" stroke="grey" stroke-width="2" d="M205.761,-287.887C183.569,-278.43 155.31,-266.355 122.898,-252.377"/>
<polygon fill="grey" stroke="grey" stroke-width="2" points="124.216,-249.133 113.648,-248.384 121.442,-255.56 124.216,-249.133"/>
</g>
</g>
</svg>
